<svg width="23" height="18" viewBox="0 0 23 18" fill="none" xmlns="http://www.w3.org/2000/svg">
<path d="M19.0238 1.90925C17.5975 1.24551 16.0923 0.772194 14.5458 0.501168C14.5317 0.498511 14.5172 0.500413 14.5043 0.506603C14.4914 0.512793 14.4807 0.522956 14.4738 0.535645C14.2804 0.884412 14.0662 1.33931 13.9162 1.69681C12.2253 1.44014 10.5429 1.44014 8.88667 1.69681C8.7367 1.33131 8.51469 0.884412 8.32045 0.535645C8.31325 0.523245 8.30254 0.513331 8.2897 0.507197C8.27686 0.501063 8.2625 0.498995 8.24849 0.501261C6.70187 0.771657 5.19654 1.24493 3.77039 1.90915C3.75819 1.91444 3.74791 1.92343 3.74097 1.9349C0.888855 6.25466 0.10749 10.4682 0.490839 14.6295C0.491923 14.6397 0.495013 14.6496 0.499926 14.6585C0.504838 14.6675 0.511474 14.6754 0.519439 14.6817C2.40117 16.0827 4.22396 16.9332 6.01292 17.4969C6.02683 17.5011 6.04168 17.5009 6.05547 17.4963C6.06927 17.4917 6.08135 17.483 6.09011 17.4712C6.51324 16.8854 6.89045 16.2676 7.21394 15.618C7.21838 15.6091 7.22092 15.5994 7.22139 15.5894C7.22185 15.5795 7.22023 15.5695 7.21662 15.5602C7.21302 15.551 7.20752 15.5426 7.20049 15.5356C7.19345 15.5286 7.18504 15.5232 7.17581 15.5198C6.57741 15.2897 6.0077 15.0092 5.45962 14.6906C5.44963 14.6846 5.44123 14.6763 5.43518 14.6663C5.42913 14.6562 5.4256 14.6449 5.42491 14.6331C5.42422 14.6214 5.42639 14.6097 5.43123 14.599C5.43607 14.5883 5.44343 14.579 5.45266 14.5719C5.56797 14.4843 5.68338 14.3932 5.79347 14.3011C5.80326 14.2929 5.8151 14.2877 5.82767 14.286C5.84024 14.2842 5.85303 14.2861 5.86461 14.2914C9.46509 15.9579 13.3629 15.9579 16.9209 14.2914C16.9325 14.2858 16.9454 14.2836 16.9581 14.2852C16.9709 14.2868 16.9829 14.292 16.9928 14.3002C17.103 14.3922 17.2183 14.4843 17.3346 14.5719C17.3438 14.579 17.3512 14.5882 17.3561 14.5988C17.361 14.6094 17.3633 14.6211 17.3627 14.6328C17.3621 14.6446 17.3587 14.6559 17.3527 14.666C17.3467 14.676 17.3384 14.6845 17.3285 14.6905C16.7802 15.0151 16.2059 15.2923 15.6116 15.5189C15.6024 15.5225 15.594 15.528 15.587 15.5351C15.58 15.5421 15.5746 15.5506 15.5711 15.56C15.5676 15.5694 15.566 15.5794 15.5666 15.5894C15.5671 15.5994 15.5698 15.6091 15.5743 15.618C15.9047 16.2667 16.2819 16.8845 16.6972 17.4703C16.7057 17.4824 16.7177 17.4915 16.7316 17.4962C16.7454 17.501 16.7604 17.5012 16.7744 17.4969C18.572 16.9331 20.3948 16.0826 22.2765 14.6817C22.2846 14.6757 22.2913 14.668 22.2963 14.6592C22.3012 14.6503 22.3043 14.6405 22.3052 14.6304C22.7639 9.81938 21.5368 5.6404 19.0524 1.93573C19.0463 1.9237 19.0362 1.91436 19.0238 1.90925ZM7.75156 12.0957C6.66761 12.0957 5.77441 11.0868 5.77441 9.84772C5.77441 8.60877 6.65028 7.59983 7.75165 7.59983C8.86155 7.59983 9.74604 8.6176 9.72872 9.84781C9.72872 11.0868 8.85285 12.0957 7.75156 12.0957ZM15.0618 12.0957C13.9778 12.0957 13.0846 11.0868 13.0846 9.84772C13.0846 8.60877 13.9604 7.59983 15.0618 7.59983C16.1717 7.59983 17.0562 8.6176 17.0389 9.84781C17.0389 11.0868 16.1717 12.0957 15.0618 12.0957Z" fill="white"/>
</svg>
