<svg width="23" height="22" viewBox="0 0 23 22" fill="none" xmlns="http://www.w3.org/2000/svg">
    <path
        d="M11.8 0C5.72255 0 0.800049 5.0503 0.800049 11.2793C0.800049 16.2638 3.95155 20.4907 8.3213 21.9805C8.8713 22.0867 9.07297 21.738 9.07297 21.4382C9.07297 21.1703 9.0638 20.4606 9.05922 19.5207C5.99938 20.2012 5.35405 18.0074 5.35405 18.0074C4.85355 16.7056 4.1303 16.3578 4.1303 16.3578C3.13388 15.6585 4.2073 15.6726 4.2073 15.6726C5.31188 15.7515 5.89213 16.8343 5.89213 16.8343C6.87297 18.5591 8.46705 18.061 9.09588 17.7724C9.19488 17.043 9.47813 16.5458 9.79255 16.2638C7.34963 15.9818 4.78205 15.0118 4.78205 10.6899C4.78205 9.45862 5.2083 8.45289 5.91413 7.66334C5.79038 7.37853 5.41913 6.23181 6.01038 4.67808C6.01038 4.67808 6.93163 4.37542 9.03538 5.83421C9.91538 5.58325 10.8504 5.45918 11.7854 5.45354C12.7204 5.45918 13.6554 5.58325 14.5354 5.83421C16.6254 4.37542 17.5466 4.67808 17.5466 4.67808C18.1379 6.23181 17.7666 7.37853 17.6566 7.66334C18.3579 8.45289 18.7841 9.45862 18.7841 10.6899C18.7841 15.0231 16.2129 15.9771 13.7654 16.2544C14.1504 16.5928 14.5079 17.2846 14.5079 18.3411C14.5079 19.8506 14.4941 21.0631 14.4941 21.4297C14.4941 21.7258 14.6866 22.0783 15.2504 21.9655C19.6513 20.486 22.8 16.2563 22.8 11.2793C22.8 5.0503 17.8748 0 11.8 0Z"
        fill="#D4FD80" />
</svg>