<svg width="21" height="20" viewBox="0 0 21 20" fill="none" xmlns="http://www.w3.org/2000/svg">
<g clip-path="url(#clip0_7_106)">
<path d="M-0.199951 1.57575C-0.199951 0.705375 0.523299 0 1.41567 0H20.1844C21.0768 0 21.8 0.705375 21.8 1.57575V20.4242C21.8 21.2946 21.0768 22 20.1844 22H1.41567C0.523299 22 -0.199951 21.2946 -0.199951 20.4242V1.57575ZM6.59667 18.4167V8.48238H3.2953V18.4167H6.59667ZM4.94667 7.12525C6.09755 7.12525 6.81392 6.3635 6.81392 5.40925C6.7933 4.43437 6.09892 3.69325 4.96867 3.69325C3.83842 3.69325 3.10005 4.43575 3.10005 5.40925C3.10005 6.3635 3.81642 7.12525 4.92467 7.12525H4.94667ZM11.6952 18.4167V12.8686C11.6952 12.5716 11.7172 12.2746 11.8052 12.0629C12.043 11.4703 12.5862 10.8556 13.4992 10.8556C14.694 10.8556 15.1712 11.7659 15.1712 13.1024V18.4167H18.4725V12.7188C18.4725 9.66625 16.8445 8.24725 14.672 8.24725C12.9203 8.24725 12.1352 9.20975 11.6952 9.88762V9.922H11.6732L11.6952 9.88762V8.48238H8.39517C8.43642 9.41463 8.39517 18.4167 8.39517 18.4167H11.6952Z" fill="white"/>
</g>
<defs>
<clipPath id="clip0_7_106">
<rect width="20" height="20" fill="white" transform="translate(0.199951)"/>
</clipPath>
</defs>
</svg>
