<svg width="22" height="22" viewBox="0 0 22 22" fill="none" xmlns="http://www.w3.org/2000/svg">
<path d="M12.8334 1.83334V5.50001C12.8334 5.98624 13.0265 6.45256 13.3703 6.79637C13.7142 7.14019 14.1805 7.33334 14.6667 7.33334H18.3334" stroke="white" stroke-width="2" stroke-linecap="round" stroke-linejoin="round"/>
<path d="M13.75 16.5C13.75 15.7707 13.4603 15.0712 12.9445 14.5555C12.4288 14.0397 11.7293 13.75 11 13.75C10.2707 13.75 9.57118 14.0397 9.05546 14.5555C8.53973 15.0712 8.25 15.7707 8.25 16.5" stroke="white" stroke-width="2" stroke-linecap="round" stroke-linejoin="round"/>
<path d="M13.75 1.83334H5.49996C5.01373 1.83334 4.54741 2.0265 4.2036 2.37031C3.85978 2.71413 3.66663 3.18045 3.66663 3.66668V18.3333C3.66663 18.8196 3.85978 19.2859 4.2036 19.6297C4.54741 19.9735 5.01373 20.1667 5.49996 20.1667H16.5C16.9862 20.1667 17.4525 19.9735 17.7963 19.6297C18.1401 19.2859 18.3333 18.8196 18.3333 18.3333V6.41668L13.75 1.83334Z" stroke="white" stroke-width="2" stroke-linecap="round" stroke-linejoin="round"/>
<path d="M11 13.75C12.0125 13.75 12.8333 12.9292 12.8333 11.9167C12.8333 10.9042 12.0125 10.0833 11 10.0833C9.98744 10.0833 9.16663 10.9042 9.16663 11.9167C9.16663 12.9292 9.98744 13.75 11 13.75Z" stroke="white" stroke-width="2" stroke-linecap="round" stroke-linejoin="round"/>
</svg>
